<svg width="621" height="669" viewBox="0 0 621 669" fill="none" xmlns="http://www.w3.org/2000/svg">
<path d="M404.219 112.366C404.219 112.366 404.249 112.306 404.249 112.276C404.719 112.306 405.349 112.346 406.279 112.406C407.809 112.506 409.799 112.006 411.349 111.816C415.269 111.336 419.159 110.746 423.059 110.176C429.589 109.236 436.049 108.126 442.459 106.786C444.349 107.386 446.199 108.116 448.019 108.956C449.309 110.806 450.629 112.696 451.759 114.396C460.209 127.116 467.609 139.906 474.779 153.446C480.989 165.156 488.209 177.106 495.359 189.236C495.919 191.486 496.359 193.586 496.639 194.556C498.479 200.996 500.029 207.516 501.529 214.036C502.559 218.556 503.539 223.096 504.489 227.636C503.199 237.126 502.129 246.656 500.439 256.086C510.759 262.466 521.089 268.836 531.409 275.206C545.809 282.396 560.259 289.606 575.119 297.026C573.899 232.206 572.669 167.396 571.449 102.576C565.729 82.8059 560.019 63.0459 554.299 43.2759C495.049 56.8259 438.439 69.7659 380.219 83.0659C381.529 84.7659 382.829 86.4759 384.129 88.1859C391.759 95.4259 398.449 103.506 404.219 112.346V112.366Z" fill="#FD4239"/>
<path d="M482.107 540.086C478.987 540.946 475.857 541.806 472.727 542.666C472.627 543.076 472.357 543.346 472.367 543.826C472.447 560.266 473.867 576.656 474.007 593.086C474.007 594.186 474.337 595.076 474.827 595.796C485.197 597.336 495.567 598.236 505.937 598.606C509.367 598.746 512.757 598.826 516.127 598.856C520.697 598.856 525.267 598.696 529.837 598.456C534.797 598.066 539.657 597.376 544.377 596.226C544.907 596.096 545.457 595.856 545.997 595.696C557.187 588.376 567.687 580.186 577.507 571.116C578.007 570.256 578.347 569.406 578.757 568.556C579.277 552.036 578.217 535.596 575.747 519.136C542.337 526.616 511.357 533.546 482.117 540.096L482.107 540.086Z" fill="#FD4239"/>
<path d="M572.067 435.356C549.167 413.236 523.907 393.016 497.757 374.206C487.847 371.706 477.767 369.986 467.487 369.026C460.707 380.906 455.737 393.396 452.617 406.616C453.597 422.326 459.187 437.776 462.047 450.366C499.647 455.426 534.257 460.076 570.547 464.946L572.047 435.356H572.067Z" fill="#FD4239"/>
<path d="M61.9688 63.8558V65.5458C61.9688 72.0858 72.1387 72.0958 72.1387 65.5458V63.8558C72.1387 57.3158 61.9688 57.3058 61.9688 63.8558Z" fill="white"/>
<path d="M88.88 96.606C77.3 96.606 77.28 114.616 88.88 114.616C100.48 114.616 100.49 96.606 88.88 96.606Z" fill="white"/>
<path d="M383.867 38.4459V40.1359C383.867 46.6759 394.037 46.6859 394.037 40.1359V38.4459C394.037 31.9059 383.867 31.8959 383.867 38.4459Z" fill="white"/>
<path d="M37.5469 128.236V130.406C37.5469 137.856 49.1169 137.866 49.1169 130.406V128.236C49.1169 120.786 37.5469 120.776 37.5469 128.236Z" fill="white"/>
<path d="M215.432 337.266C220.612 338.796 226.072 339.806 232.002 340.066C246.732 340.706 261.682 338.456 275.952 333.976C276.252 333.926 276.532 333.836 276.822 333.786C299.042 324.996 320.372 314.546 340.812 302.476C349.342 296.726 357.752 290.806 365.932 284.516C369.792 281.756 373.492 278.816 377.012 275.726C378.512 274.496 380.072 273.366 381.562 272.126C381.772 271.746 381.942 271.346 382.152 270.966C396.312 257.076 406.262 240.246 408.132 220.876C406.792 191.106 400.862 162.096 390.212 134.006C389.212 131.876 387.952 129.966 386.832 127.936C370.362 107.016 349.332 90.4359 325.062 78.7659C294.142 78.7659 263.762 82.5159 233.952 89.8659C220.652 94.4359 207.592 99.8459 194.822 106.116C170.562 123.516 151.372 146.976 142.412 174.566C137.492 214.186 143.442 252.336 160.262 287.996C174.512 308.626 193.382 325.456 215.442 337.266H215.432ZM185.942 259.216C186.652 256.706 187.482 254.246 188.562 251.886C196.152 231.316 210.492 214.396 229.252 201.256C255.402 182.946 296.972 163.046 329.072 162.676C338.332 162.566 346.332 164.626 353.262 167.976C367.202 172.676 376.482 184.686 379.602 201.576C380.642 206.106 381.052 210.746 380.892 215.416C382.582 244.446 365.862 264.766 345.062 281.006C313.712 303.076 273.342 316.556 239.142 321.836C231.342 321.016 223.562 319.106 216.012 315.846C214.392 315.146 212.842 314.336 211.292 313.526C190.642 301.506 183.662 281.506 185.952 259.206L185.942 259.216Z" fill="white"/>
<path d="M167.309 341.566C167.199 341.486 167.099 341.416 166.989 341.336C166.079 340.676 165.579 339.856 165.229 338.996C160.709 332.926 156.189 326.856 151.669 320.786C127.449 344.206 108.269 371.496 94.4994 402.486C94.3994 402.726 94.2294 402.836 94.1094 403.036C91.2794 410.436 88.7894 418.036 86.6094 425.856C88.4294 430.086 90.9494 433.856 93.9594 437.306C99.6294 439.346 104.489 439.786 108.919 438.986C114.429 438.896 118.319 437.616 121.589 435.466C142.189 408.046 164.179 381.806 187.339 356.526C180.699 351.576 174.049 346.616 167.409 341.666C167.369 341.636 167.359 341.596 167.319 341.566H167.309Z" fill="white"/>
<path d="M231.762 285.126C237.602 270.376 241.472 256.526 248.442 244.206C255.532 231.686 265.702 220.686 274.542 209.026C265.592 208.826 256.272 211.166 247.982 215.206C238.992 222.636 230.972 231.106 224.252 240.736C221.342 248.306 218.972 256.196 219.412 264.316C219.932 273.776 224.552 281.606 231.762 285.126V285.126Z" fill="white"/>
<path d="M478.29 190.356C467.96 170.386 457.67 151.236 448.07 131.776C445.65 126.866 443.04 123.416 440.28 121.026L411.93 128.576C417.44 157.286 422.69 184.626 428.26 213.666C445.02 205.856 460.22 198.766 478.28 190.356H478.29Z" fill="white"/>
<path d="M585.866 334.576C554.966 293.656 507.366 279.736 455.706 273.026C453.186 272.696 449.236 273.016 446.686 273.736C442.926 284.366 439.726 295.186 437.086 306.196C437.166 306.786 437.196 307.386 437.336 307.966C439.966 318.766 446.526 335.046 453.366 341.196C458.476 342.486 463.566 343.826 468.586 345.326C489.476 348.746 507.246 356.566 523.436 366.926C542.996 376.576 561.636 388.096 579.376 401.296C580.086 400.566 580.806 399.836 581.516 399.106C587.856 389.986 594.206 380.866 600.546 371.746C597.956 358.436 593.126 345.916 585.866 334.576V334.576Z" fill="white"/>
<path d="M448.102 523.586C448.052 523.196 448.162 522.906 448.192 522.566C444.042 487.566 439.762 452.576 435.212 417.626C434.062 408.826 429.932 399.346 424.212 392.266C408.312 372.606 390.842 354.046 372.922 333.856C340.422 350.386 301.422 369.966 262.832 390.206C261.892 390.696 261.042 391.546 260.192 392.366C259.302 392.736 258.462 393.336 257.862 394.426C251.252 406.356 245.922 419.046 240.902 431.796C234.662 433.926 227.982 435.296 221.732 437.296C221.192 437.376 220.672 437.506 220.182 437.746C220.112 437.766 220.032 437.786 219.952 437.806C212.652 463.976 209.592 490.446 210.672 517.366C225.962 522.646 241.702 524.866 257.732 523.706C261.412 510.276 265.152 496.646 268.892 482.996C269.912 477.136 270.932 471.266 271.952 465.396C271.362 465.256 270.782 465.106 270.202 464.966C268.112 463.986 266.052 463.006 264.122 462.146C259.652 460.156 255.192 458.136 250.672 456.236L250.712 453.596C278.482 448.886 306.312 444.166 338.052 438.776C339.152 438.036 340.462 437.776 341.702 437.866C345.132 450.126 348.832 462.286 352.852 474.336C364.542 514.796 376.242 555.266 387.932 595.736C393.852 612.956 399.762 630.176 405.672 647.396C423.562 648.256 440.872 645.826 457.812 640.196L453.082 565.896C451.422 551.786 449.762 537.676 448.102 523.566V523.586Z" fill="white"/>
<path d="M309.033 567.386C293.033 564.586 276.883 562.996 260.443 562.966C259.423 562.966 258.623 562.656 257.923 562.246C256.283 562.306 254.663 562.296 253.063 562.126C225.723 559.076 198.463 555.056 171.393 550.266L94.6528 542.626C92.7228 542.436 91.4328 541.356 90.6528 539.996C88.8428 538.206 88.2028 535.246 90.5428 532.936C100.743 522.856 110.933 512.786 121.133 502.706C136.643 497.356 152.323 492.636 168.223 488.506C177.953 485.976 187.923 484.646 197.393 481.526C195.023 453.936 187.533 427.746 174.873 402.836C174.223 403.096 173.583 403.486 173.013 404.196C165.263 413.766 157.033 422.936 148.973 432.246C148.643 432.636 148.313 433.026 147.983 433.416C144.813 437.076 141.693 440.766 138.583 444.466C125.543 449.146 112.283 453.726 98.6328 454.786C96.3328 454.446 94.0328 454.056 91.7828 453.516C90.6428 452.926 89.5928 452.236 88.5128 451.576C82.4428 444.536 77.3728 436.796 74.1128 428.066C75.7028 420.596 77.4328 413.146 79.8928 405.866C86.7428 385.646 96.5328 366.886 103.433 346.776C107.013 338.116 110.503 331.326 105.163 321.926C99.0128 311.086 92.3828 300.486 87.9428 288.886C86.6728 278.106 86.4328 265.586 90.2228 256.156C100.173 244.686 110.123 233.226 120.063 221.756C120.803 207.876 122.403 194.086 123.873 180.266C130.343 166.966 137.473 154.036 145.303 141.496L141.153 142.356L112.793 150.046C112.223 150.196 111.733 150.166 111.223 150.146C82.4828 158.736 54.0728 167.226 24.6328 176.016C26.8928 243.906 29.1428 311.796 31.4028 379.696C36.2128 448.696 41.0328 517.686 45.8528 586.676C57.8828 595.556 71.2028 601.856 85.6328 605.696C86.1328 605.576 86.7028 605.556 87.1528 605.376C149.703 605.416 212.263 605.786 274.803 605.116C295.683 604.896 316.523 601.746 338.343 599.856C337.343 597.636 336.223 595.606 335.113 593.576C326.883 584.396 318.173 575.666 309.023 567.356L309.033 567.386Z" fill="#FD4239"/>
<path d="M591.78 412.346C592.06 412.046 592.35 411.766 592.63 411.476C592.74 411.266 592.75 411.066 592.9 410.846C601.56 398.486 612.09 387.486 620.74 375.156C618.01 364.466 614.76 353.936 610.81 343.666C610.11 341.856 609.41 340.046 608.71 338.236C605.9 331.456 602.76 324.796 599.22 318.316C598.43 316.866 598.4 315.456 598.84 314.256L593.18 220.836L589.55 37.7459C585.64 28.1959 580.31 17.9159 572.73 10.9159C570.27 8.64591 567.47 7.01591 564.64 5.46591C537.95 4.10591 511.01 0.865914 485.55 0.105914C484.17 0.065914 482.79 0.055914 481.41 0.025914C419.75 0.045914 358.07 -0.404086 296.41 1.76591C248.17 3.46591 200.1 4.77591 151.83 4.53591C150.84 4.53591 149.84 4.52591 148.84 4.51591C122.34 5.11591 95.84 5.63591 69.34 6.25591C52.13 9.01591 35.06 12.4559 18.16 16.8959C11.83 28.4459 5.7 40.1359 0 52.0259C1.09 146.256 8.27 240.596 13.71 334.606C17.1 393.146 18.35 451.926 20.32 510.526C20.8 524.716 20.93 538.956 20.67 553.206C22.03 569.056 23.32 584.896 24.29 600.766C35.61 618.126 55.94 630.266 76.99 627.546C90.83 625.756 104.82 623.976 118.76 623.916C195.21 623.586 271.7 623.736 349.81 623.746C353.18 623.896 356.54 624.046 359.91 624.196C359.95 624.256 360 624.316 360.05 624.376C360.05 624.376 360.07 624.386 360.08 624.396C371.35 639.616 383.22 654.406 396.19 668.156C421.93 668.346 447.14 665.316 471.04 656.686C471.19 655.586 471.35 654.476 471.5 653.366C471.62 652.476 471.79 651.576 471.94 650.676C472.65 641.726 473.3 632.806 474.03 624.016C496.27 622.626 518.91 622.096 540.9 618.986C544.09 618.536 546.97 617.876 549.68 617.076C566.87 605.396 582.52 591.266 594.68 574.486C595.02 572.736 595.36 570.996 595.67 569.246C595.09 561.936 594.65 554.616 594.13 547.296C593.35 502.306 592.58 457.326 591.8 412.336L591.78 412.346ZM516.12 598.846C512.75 598.816 509.36 598.736 505.93 598.596C495.57 598.236 485.2 597.326 474.82 595.786C474.33 595.076 474.01 594.176 474 593.076C473.87 576.646 472.44 560.246 472.36 543.816C472.36 543.336 472.62 543.066 472.72 542.656C475.85 541.796 478.97 540.936 482.1 540.076C511.35 533.526 542.32 526.596 575.73 519.116C578.21 535.576 579.26 552.006 578.74 568.536C578.33 569.396 577.99 570.246 577.49 571.096C567.67 580.176 557.17 588.366 545.98 595.676C545.44 595.836 544.89 596.076 544.36 596.206C539.63 597.356 534.78 598.046 529.82 598.436C525.25 598.676 520.68 598.826 516.11 598.836L516.12 598.846ZM405.67 647.406C399.76 630.186 393.85 612.966 387.93 595.746C376.24 555.286 364.55 514.816 352.85 474.346C348.82 462.296 345.13 450.126 341.7 437.876C340.45 437.786 339.14 438.036 338.05 438.786C306.31 444.176 278.48 448.896 250.71 453.606L250.67 456.246C255.19 458.146 259.65 460.166 264.12 462.156C266.05 463.016 268.1 463.996 270.2 464.976C270.78 465.116 271.36 465.266 271.95 465.406C270.93 471.266 269.91 477.136 268.89 483.006C265.15 496.656 261.41 510.296 257.73 523.716C241.69 524.876 225.95 522.656 210.67 517.376C209.58 490.456 212.65 463.986 219.95 437.816C220.03 437.796 220.1 437.776 220.18 437.756C220.67 437.516 221.19 437.386 221.73 437.306C227.97 435.306 234.66 433.936 240.9 431.806C245.93 419.046 251.25 406.366 257.86 394.436C258.47 393.346 259.3 392.746 260.19 392.376C261.04 391.556 261.88 390.706 262.83 390.216C301.43 369.966 340.42 350.386 372.92 333.866C390.84 354.066 408.31 372.616 424.21 392.276C429.93 399.346 434.06 408.826 435.21 417.636C439.76 452.586 444.04 487.576 448.19 522.576C448.16 522.916 448.05 523.206 448.1 523.596C449.76 537.706 451.42 551.816 453.08 565.926L457.81 640.226C440.87 645.856 423.56 648.286 405.67 647.426V647.406ZM24.63 176.046C54.07 167.256 82.48 158.766 111.22 150.176C111.73 150.196 112.22 150.226 112.79 150.076L141.15 142.386L145.3 141.526C137.47 154.066 130.34 166.996 123.87 180.296C122.41 194.116 120.8 207.916 120.06 221.786C110.11 233.256 100.16 244.716 90.22 256.186C86.43 265.616 86.68 278.136 87.94 288.916C92.38 300.516 99 311.116 105.16 321.956C110.5 331.356 107.01 338.146 103.43 346.806C96.53 366.926 86.74 385.686 79.89 405.896C77.42 413.176 75.7 420.616 74.11 428.096C77.38 436.826 82.45 444.576 88.51 451.606C89.59 452.266 90.64 452.956 91.78 453.546C94.03 454.076 96.34 454.466 98.63 454.816C112.27 453.756 125.53 449.166 138.58 444.496C141.69 440.796 144.81 437.106 147.98 433.446C148.32 433.056 148.64 432.666 148.97 432.276C157.03 422.966 165.26 413.796 173.01 404.226C173.59 403.516 174.22 403.126 174.87 402.866C187.53 427.776 195.02 453.966 197.39 481.556C187.92 484.676 177.95 486.006 168.22 488.536C152.33 492.666 136.64 497.386 121.13 502.736C110.93 512.816 100.74 522.886 90.54 532.966C88.2 535.276 88.85 538.226 90.65 540.026C91.43 541.376 92.71 542.456 94.65 542.656L171.39 550.296C198.46 555.076 225.71 559.096 253.06 562.156C254.66 562.336 256.29 562.346 257.92 562.276C258.62 562.686 259.42 562.996 260.44 562.996C276.87 563.026 293.03 564.606 309.03 567.416C318.18 575.726 326.89 584.456 335.12 593.636C336.23 595.666 337.35 597.696 338.35 599.916C316.53 601.806 295.68 604.956 274.81 605.176C212.27 605.846 149.71 605.476 87.16 605.436C86.71 605.616 86.13 605.636 85.64 605.756C71.21 601.916 57.89 595.616 45.86 586.736C41.04 517.746 36.23 448.746 31.41 379.756C29.15 311.866 26.9 243.966 24.64 176.076L24.63 176.046ZM575.11 297.036C560.24 289.616 545.8 282.406 531.4 275.216C521.08 268.836 510.75 262.466 500.43 256.096C502.12 246.666 503.19 237.136 504.48 227.646C503.53 223.106 502.55 218.566 501.52 214.046C500.03 207.526 498.47 201.006 496.63 194.566C496.35 193.596 495.91 191.496 495.35 189.246C488.2 177.116 480.98 165.176 474.77 153.456C467.6 139.916 460.2 127.126 451.75 114.406C450.62 112.706 449.3 110.816 448.01 108.966C446.19 108.116 444.34 107.386 442.45 106.796C436.04 108.136 429.57 109.246 423.05 110.186C419.14 110.746 415.25 111.336 411.34 111.826C409.8 112.016 407.81 112.516 406.27 112.416C405.34 112.356 404.72 112.316 404.24 112.286C404.24 112.316 404.21 112.346 404.21 112.376C398.44 103.536 391.75 95.4559 384.12 88.2159C382.82 86.5159 381.51 84.8059 380.21 83.0959C438.43 69.7859 495.03 56.8459 554.29 43.3059C560.01 63.0659 565.72 82.8359 571.44 102.606C572.66 167.416 573.89 232.236 575.11 297.056V297.036ZM446.68 273.726C449.23 272.996 453.18 272.686 455.7 273.016C507.36 279.736 554.96 293.656 585.86 334.566C593.12 345.906 597.96 358.426 600.54 371.736C594.2 380.856 587.85 389.976 581.51 399.096C580.8 399.826 580.08 400.556 579.37 401.286C561.63 388.086 542.99 376.566 523.43 366.916C507.25 356.556 489.47 348.736 468.58 345.316C463.56 343.816 458.47 342.476 453.36 341.186C446.52 335.026 439.96 318.746 437.33 307.956C437.19 307.376 437.17 306.776 437.08 306.186C439.72 295.176 442.92 284.356 446.68 273.726V273.726ZM428.26 213.656C422.69 184.616 417.44 157.276 411.93 128.566L440.28 121.016C443.03 123.396 445.65 126.856 448.07 131.766C457.66 151.226 467.95 170.376 478.29 190.346C460.23 198.766 445.03 205.846 428.27 213.656H428.26ZM160.25 287.986C143.43 252.336 137.48 214.176 142.4 174.556C151.35 146.966 170.55 123.506 194.81 106.106C207.58 99.8359 220.63 94.4259 233.94 89.8559C263.75 82.5059 294.13 78.7559 325.05 78.7559C349.32 90.4259 370.36 107.006 386.82 127.926C387.94 129.956 389.19 131.876 390.2 133.996C400.86 162.076 406.79 191.096 408.12 220.866C406.25 240.226 396.3 257.066 382.14 270.956C381.93 271.336 381.76 271.736 381.55 272.116C380.07 273.366 378.5 274.496 377 275.716C373.48 278.806 369.78 281.746 365.92 284.506C357.75 290.796 349.33 296.716 340.8 302.466C320.36 314.536 299.02 324.986 276.81 333.776C276.52 333.826 276.24 333.916 275.94 333.966C261.68 338.436 246.73 340.696 231.99 340.056C226.06 339.796 220.6 338.786 215.42 337.256C193.36 325.446 174.49 308.616 160.24 287.986H160.25ZM187.33 356.516C164.17 381.786 142.18 408.036 121.58 435.456C118.31 437.606 114.42 438.886 108.91 438.976C104.48 439.776 99.62 439.346 93.95 437.296C90.95 433.856 88.43 430.086 86.6 425.846C88.79 418.026 91.28 410.426 94.1 403.026C94.22 402.826 94.39 402.706 94.49 402.476C108.26 371.486 127.44 344.196 151.66 320.776C156.18 326.846 160.7 332.916 165.22 338.986C165.57 339.846 166.07 340.676 166.98 341.326C167.08 341.406 167.19 341.476 167.3 341.556C167.33 341.586 167.35 341.626 167.39 341.656C174.03 346.606 180.68 351.556 187.32 356.516H187.33ZM383.87 40.1359V38.4459C383.87 31.8959 394.04 31.9059 394.04 38.4459V40.1359C394.04 46.6859 383.87 46.6759 383.87 40.1359ZM88.88 114.616C77.28 114.616 77.3 96.6059 88.88 96.6059C100.46 96.6059 100.47 114.616 88.88 114.616ZM72.13 63.8559V65.5459C72.13 72.0959 61.96 72.0859 61.96 65.5459V63.8559C61.96 57.3059 72.13 57.3159 72.13 63.8559V63.8559ZM49.12 128.236V130.406C49.12 137.866 37.55 137.856 37.55 130.406V128.236C37.55 120.776 49.12 120.786 49.12 128.236ZM452.64 406.626C455.76 393.406 460.72 380.916 467.51 369.036C477.79 369.996 487.87 371.716 497.78 374.216C523.92 393.026 549.19 413.236 572.09 435.366L570.59 464.956C534.3 460.076 499.68 455.426 462.09 450.376C459.23 437.786 453.64 422.336 452.66 406.626H452.64Z" fill="#252525"/>
<path d="M211.279 313.526C212.829 314.336 214.379 315.146 215.999 315.846C223.549 319.106 231.329 321.006 239.129 321.836C273.339 316.556 313.699 303.076 345.049 281.006C365.849 264.766 382.569 244.446 380.879 215.416C381.039 210.746 380.629 206.106 379.589 201.576C376.469 184.676 367.189 172.666 353.249 167.976C346.329 164.626 338.329 162.576 329.059 162.676C296.949 163.046 255.379 182.946 229.239 201.256C210.479 214.396 196.139 231.316 188.549 251.886C187.479 254.246 186.649 256.706 185.929 259.216C183.649 281.516 190.629 301.516 211.269 313.536L211.279 313.526ZM224.239 240.736C230.959 231.116 238.979 222.636 247.969 215.206C256.269 211.166 265.589 208.826 274.529 209.026C265.699 220.686 255.519 231.686 248.429 244.206C241.459 256.526 237.589 270.376 231.749 285.126C224.539 281.606 219.909 273.776 219.399 264.316C218.959 256.196 221.329 248.316 224.239 240.736V240.736Z" fill="#252525"/>
</svg>
